<svg xmlns="http://www.w3.org/2000/svg" width="375" viewBox="0 0 375 375" height="375" version="1.0"><defs><clipPath id="a"><path d="M 62.09375 119.625 L 312.59375 119.625 L 312.59375 255.375 L 62.09375 255.375 Z M 62.09375 119.625"/></clipPath></defs><path fill="#FFF" d="M 37.503906 133.628906 C 37.503906 217.285156 187.5 319.320312 187.5 319.320312 C 187.5 319.320312 336.835938 216.566406 337.496094 133.628906 C 337.496094 90.8125 302.636719 55.921875 259.859375 55.921875 C 226.980469 55.921875 198.660156 77 187.5 105.945312 C 176.339844 77 148.019531 55.921875 115.140625 55.921875 C 72.363281 55.921875 37.503906 90.8125 37.503906 133.628906"/><g clip-path="url(#a)"><path fill="#031D33" d="M 172.171875 255.3125 C 170.433594 255.3125 168.925781 254.101562 168.5625 252.394531 L 144.183594 140.054688 L 125.191406 220.816406 C 124.859375 222.242188 123.714844 223.339844 122.269531 223.597656 C 120.8125 223.878906 119.355469 223.253906 118.53125 222.035156 L 105.640625 202.929688 L 99.269531 211.417969 C 98.574219 212.355469 97.472656 212.898438 96.316406 212.898438 L 65.960938 212.898438 C 63.921875 212.898438 62.269531 211.253906 62.269531 209.199219 C 62.269531 207.160156 63.921875 205.503906 65.960938 205.503906 L 94.464844 205.503906 L 102.839844 194.324219 C 103.558594 193.363281 104.753906 192.855469 105.878906 192.84375 C 107.074219 192.875 108.1875 193.480469 108.855469 194.46875 L 119.9375 210.886719 L 140.714844 122.4375 C 141.113281 120.761719 142.601562 119.582031 144.316406 119.582031 L 144.347656 119.582031 C 146.074219 119.59375 147.5625 120.8125 147.929688 122.5 L 171.945312 233.109375 L 184.972656 164.839844 C 185.304688 163.132812 186.773438 161.878906 188.5 161.828125 C 190.183594 161.902344 191.765625 162.941406 192.191406 164.632812 L 206.398438 221.515625 L 211.070312 209.160156 C 211.609375 207.722656 212.992188 206.773438 214.523438 206.773438 L 231.921875 206.773438 L 245.367188 192.71875 C 246.074219 191.980469 247.019531 191.613281 248.082031 191.574219 C 249.113281 191.59375 250.078125 192.03125 250.765625 192.78125 L 262.316406 205.503906 L 308.726562 205.503906 C 310.765625 205.503906 312.417969 207.160156 312.417969 209.199219 C 312.417969 211.253906 310.765625 212.898438 308.726562 212.898438 L 260.683594 212.898438 C 259.632812 212.898438 258.644531 212.460938 257.945312 211.691406 L 247.96875 200.710938 L 236.15625 213.023438 C 235.46875 213.761719 234.503906 214.171875 233.492188 214.171875 L 217.082031 214.171875 L 209.132812 235.195312 C 208.5625 236.714844 207.09375 237.640625 205.460938 237.578125 C 203.847656 237.484375 202.484375 236.359375 202.089844 234.789062 L 189.09375 182.71875 L 175.804688 252.300781 C 175.472656 254.03125 173.972656 255.289062 172.214844 255.3125 L 172.171875 255.3125"/></g></svg>