<svg xmlns="http://www.w3.org/2000/svg" width="375" viewBox="0 0 375 375" height="375" version="1.0"><defs><clipPath id="a"><path d="M 37.5 37.5 L 175.5 37.5 L 175.5 177 L 37.5 177 Z M 37.5 37.5"/></clipPath><clipPath id="b"><path d="M 197.988281 39.070312 L 337.488281 39.070312 L 337.488281 177.070312 L 197.988281 177.070312 Z M 197.988281 39.070312"/></clipPath><clipPath id="c"><path d="M 199.488281 197.988281 L 337.488281 197.988281 L 337.488281 337.488281 L 199.488281 337.488281 Z M 199.488281 197.988281"/></clipPath><clipPath id="d"><path d="M 37.5 197.917969 L 177 197.917969 L 177 335.917969 L 37.5 335.917969 Z M 37.5 197.917969"/></clipPath><clipPath id="e"><path d="M 143.6875 86.984375 L 274.9375 86.984375 L 274.9375 266.984375 L 143.6875 266.984375 Z M 143.6875 86.984375"/></clipPath></defs><g clip-path="url(#a)"><path d="M 187.175781 37.195312 C 104.132812 37.195312 37.195312 104.132812 37.195312 187.175781 C 37.195312 270.21875 104.132812 337.152344 187.175781 337.152344 C 270.21875 337.152344 337.152344 270.21875 337.152344 187.175781 C 337.152344 104.132812 270.21875 37.195312 187.175781 37.195312 Z M 187.175781 50.820312 C 262.917969 50.820312 323.527344 111.433594 323.527344 187.175781 C 323.527344 262.917969 262.917969 323.527344 187.175781 323.527344 C 111.433594 323.527344 50.820312 262.917969 50.820312 187.175781 C 50.820312 111.433594 111.433594 50.820312 187.175781 50.820312 Z M 187.175781 50.820312"/></g><g clip-path="url(#b)"><path d="M 337.792969 188.746094 C 337.792969 105.703125 270.859375 38.765625 187.816406 38.765625 C 104.773438 38.765625 37.835938 105.703125 37.835938 188.746094 C 37.835938 271.789062 104.773438 338.722656 187.816406 338.722656 C 270.859375 338.722656 337.792969 271.789062 337.792969 188.746094 Z M 324.167969 188.746094 C 324.167969 264.488281 263.558594 325.097656 187.816406 325.097656 C 112.074219 325.097656 51.460938 264.488281 51.460938 188.746094 C 51.460938 113.003906 112.074219 52.390625 187.816406 52.390625 C 263.558594 52.390625 324.167969 113.003906 324.167969 188.746094 Z M 324.167969 188.746094"/></g><g clip-path="url(#c)"><path d="M 187.816406 337.796875 C 270.859375 337.796875 337.792969 270.859375 337.792969 187.816406 C 337.792969 104.773438 270.859375 37.835938 187.816406 37.835938 C 104.773438 37.835938 37.835938 104.773438 37.835938 187.816406 C 37.835938 270.859375 104.773438 337.796875 187.816406 337.796875 Z M 187.816406 324.167969 C 112.074219 324.167969 51.460938 263.558594 51.460938 187.816406 C 51.460938 112.074219 112.074219 51.460938 187.816406 51.460938 C 263.558594 51.460938 324.167969 112.074219 324.167969 187.816406 C 324.167969 263.558594 263.558594 324.167969 187.816406 324.167969 Z M 187.816406 324.167969"/></g><g clip-path="url(#d)"><path d="M 37.195312 186.246094 C 37.195312 269.289062 104.132812 336.226562 187.175781 336.226562 C 270.21875 336.226562 337.152344 269.289062 337.152344 186.246094 C 337.152344 103.203125 270.21875 36.265625 187.175781 36.265625 C 104.132812 36.265625 37.195312 103.203125 37.195312 186.246094 Z M 50.820312 186.246094 C 50.820312 110.503906 111.433594 49.890625 187.175781 49.890625 C 262.917969 49.890625 323.527344 110.503906 323.527344 186.246094 C 323.527344 261.988281 262.917969 322.597656 187.175781 322.597656 C 111.433594 322.597656 50.820312 261.988281 50.820312 186.246094 Z M 50.820312 186.246094"/></g><g clip-path="url(#e)"><path d="M 189.597656 15.421875 C 96.777344 15.421875 21.683594 90.601562 21.683594 183.421875 C 21.683594 276.242188 96.777344 351.421875 189.597656 351.421875 C 282.417969 351.421875 357.683594 276.242188 357.683594 183.421875 C 357.683594 90.601562 282.417969 15.421875 189.597656 15.421875 Z M 189.683594 317.824219 C 115.425781 317.824219 55.28125 257.679688 55.28125 183.421875 C 55.28125 109.167969 115.425781 49.023438 189.683594 49.023438 C 263.9375 49.023438 324.082031 109.167969 324.082031 183.421875 C 324.082031 257.679688 263.9375 317.824219 189.683594 317.824219 Z M 189.683594 317.824219" fill-opacity=".902"/></g><path d="M 198.082031 99.421875 L 172.882812 99.421875 L 172.882812 200.222656 L 260.996094 253.144531 L 273.683594 232.480469 L 198.082031 187.621094 Z M 198.082031 99.421875" fill-opacity=".902"/></svg>