<svg xmlns="http://www.w3.org/2000/svg" width="375" viewBox="0 0 375 375" height="375" version="1.0"><defs><clipPath id="a"><path d="M 171 0 L 373 0 L 373 205 L 171 205 Z M 171 0"/></clipPath><clipPath id="b"><path d="M 283.132812 251.613281 L 123.695312 84.457031 L 212.699219 -0.4375 L 372.136719 166.714844 Z M 283.132812 251.613281"/></clipPath><clipPath id="c"><path d="M 283.132812 251.613281 L 123.695312 84.457031 L 290.847656 -74.980469 L 450.285156 92.175781 Z M 283.132812 251.613281"/></clipPath><clipPath id="d"><path d="M 2 170 L 204 170 L 204 375 L 2 375 Z M 2 170"/></clipPath><clipPath id="e"><path d="M 162.351562 374.996094 L 2.914062 207.839844 L 91.917969 122.945312 L 251.355469 290.101562 Z M 162.351562 374.996094"/></clipPath><clipPath id="f"><path d="M 91.863281 123.382812 L 251.300781 290.539062 L 84.148438 449.976562 L -75.289062 282.820312 Z M 91.863281 123.382812"/></clipPath></defs><path fill="#FFF" d="M 154.421875 24.875 L 220.421875 24.875 L 220.421875 346.597656 L 154.421875 346.597656 L 154.421875 24.875"/><path fill="#FFF" d="M 26.15625 24.863281 L 76.609375 24.863281 L 76.609375 138.113281 L 26.15625 138.113281 L 26.15625 24.863281"/><path fill="#FFF" d="M 26.15625 75.390625 L 26.15625 24.9375 L 139.40625 24.9375 L 139.40625 75.390625 L 26.15625 75.390625"/><path fill="#FFF" d="M 350.234375 346.476562 L 299.78125 346.476562 L 299.78125 233.226562 L 350.234375 233.226562 L 350.234375 346.476562"/><path fill="#FFF" d="M 350.234375 295.949219 L 350.234375 346.402344 L 236.980469 346.402344 L 236.980469 295.949219 L 350.234375 295.949219"/><path fill="#FFF" d="M 76.6875 346.472656 L 26.230469 346.472656 L 26.230469 233.222656 L 76.6875 233.222656 L 76.6875 346.472656"/><path fill="#FFF" d="M 139.191406 295.945312 L 139.191406 346.402344 L 25.941406 346.402344 L 25.941406 295.945312 L 139.191406 295.945312"/><path fill="#FFF" d="M 299.703125 24.867188 L 350.160156 24.867188 L 350.160156 138.117188 L 299.703125 138.117188 L 299.703125 24.867188"/><path fill="#FFF" d="M 237.199219 75.394531 L 237.199219 24.9375 L 350.449219 24.9375 L 350.449219 75.394531 L 237.199219 75.394531"/><path fill="#FFF" d="M 90.472656 89.09375 L 284.722656 89.09375 L 284.722656 282.585938 L 90.472656 282.585938 L 90.472656 89.09375"/><path fill="#FFF" d="M 26.179688 153.769531 L 350.132812 153.769531 L 350.132812 218.269531 L 26.179688 218.269531 L 26.179688 153.769531"/><g clip-path="url(#a)"><g clip-path="url(#b)"><g clip-path="url(#c)"><path fill="#031D33" d="M 203.417969 168.378906 C 247.550781 214.648438 320.421875 216.371094 366.691406 172.234375 C 412.960938 128.101562 414.683594 55.230469 370.546875 8.960938 C 326.414062 -37.308594 253.542969 -39.03125 207.273438 5.105469 C 161.003906 49.238281 159.28125 122.109375 203.417969 168.378906 Z M 211.007812 161.136719 C 170.753906 118.933594 172.3125 52.949219 214.515625 12.695312 C 256.71875 -27.558594 322.703125 -26 362.957031 16.203125 C 403.210938 58.40625 401.652344 124.390625 359.449219 164.644531 C 317.246094 204.898438 251.261719 203.339844 211.007812 161.136719 Z M 211.007812 161.136719"/></g></g></g><g clip-path="url(#d)"><g clip-path="url(#e)"><g clip-path="url(#f)"><path fill="#031D33" d="M 171.582031 206.617188 C 127.445312 160.347656 54.578125 158.625 8.308594 202.761719 C -37.964844 246.894531 -39.683594 319.765625 4.449219 366.035156 C 48.582031 412.304688 121.453125 414.027344 167.722656 369.890625 C 213.992188 325.757812 215.714844 252.886719 171.582031 206.617188 Z M 163.988281 213.859375 C 204.242188 256.0625 202.683594 322.046875 160.480469 362.300781 C 118.28125 402.554688 52.292969 400.996094 12.039062 358.792969 C -28.214844 316.589844 -26.652344 250.605469 15.546875 210.351562 C 57.75 170.097656 123.734375 171.65625 163.988281 213.859375 Z M 163.988281 213.859375"/></g></g></g></svg>