<svg xmlns="http://www.w3.org/2000/svg" width="375" viewBox="0 0 375 375" height="375" version="1.0"><defs><clipPath id="a"><path d="M 34.382812 76.363281 L 337.382812 76.363281 L 337.382812 306.613281 L 34.382812 306.613281 Z M 34.382812 76.363281"/></clipPath><clipPath id="b"><path d="M 118 132 L 170 132 L 170 185 L 118 185 Z M 118 132"/></clipPath><clipPath id="c"><path d="M 146.835938 196.175781 L 106.457031 153.84375 L 129.25 132.101562 L 169.628906 174.433594 Z M 146.835938 196.175781"/></clipPath><clipPath id="d"><path d="M 146.835938 196.175781 L 106.457031 153.84375 L 148.789062 113.464844 L 189.167969 155.796875 Z M 146.835938 196.175781"/></clipPath><clipPath id="e"><path d="M 75 175 L 127 175 L 127 228 L 75 228 Z M 75 175"/></clipPath><clipPath id="f"><path d="M 116.058594 227.613281 L 75.683594 185.28125 L 98.476562 163.539062 L 138.851562 205.871094 Z M 116.058594 227.613281"/></clipPath><clipPath id="g"><path d="M 98.105469 163.507812 L 138.480469 205.839844 L 96.148438 246.214844 L 55.773438 203.882812 Z M 98.105469 163.507812"/></clipPath></defs><g clip-path="url(#a)"><path d="M 337.382812 285.386719 L 337.382812 102.542969 C 333.726562 102.542969 330.15625 102.59375 326.632812 102.675781 L 326.632812 90.027344 L 323.101562 90.027344 C 318.886719 90.027344 314.796875 90.121094 310.769531 90.253906 L 310.769531 76.769531 L 307.238281 76.769531 C 227.671875 76.769531 186.425781 108.820312 186.007812 109.148438 L 185.878906 109.25 L 185.746094 109.148438 C 185.339844 108.820312 144.085938 76.769531 64.523438 76.769531 L 60.996094 76.769531 L 60.996094 90.257812 C 56.96875 90.121094 52.875 90.027344 48.65625 90.027344 L 45.125 90.027344 L 45.125 102.679688 C 41.601562 102.597656 38.03125 102.542969 34.382812 102.542969 L 34.382812 285.386719 C 134.371094 285.386719 185.882812 306.105469 185.882812 306.105469 C 185.882812 306.105469 237.390625 285.390625 337.382812 285.386719 Z M 52.1875 96.730469 C 55.179688 96.757812 58.105469 96.828125 60.996094 96.925781 L 60.996094 260.085938 C 60.980469 260.546875 61.0625 260.960938 61.195312 261.210938 C 61.804688 262.515625 62.167969 262.496094 62.335938 262.707031 C 62.890625 263.089844 62.816406 262.992188 62.902344 263.050781 C 62.9375 263.070312 62.945312 263.070312 62.945312 263.070312 L 68.054688 265.492188 L 68.054688 263.445312 C 105.070312 263.902344 133.140625 271.457031 152.101562 278.96875 C 155.621094 280.363281 158.808594 281.761719 161.699219 283.109375 C 140.023438 277.328125 103.394531 270.320312 52.1875 270.007812 Z M 152.101562 98.996094 C 161.867188 102.875 169.214844 106.738281 174.082031 109.617188 C 176.515625 111.058594 178.339844 112.246094 179.539062 113.070312 C 179.691406 113.171875 179.832031 113.277344 179.972656 113.371094 L 179.972656 285.21875 C 166.324219 276.773438 128.628906 257.492188 68.054688 256.765625 L 68.054688 83.476562 C 105.070312 83.929688 133.140625 91.484375 152.101562 98.996094 Z M 303.710938 83.476562 L 303.710938 256.765625 C 243.140625 257.492188 205.4375 276.765625 191.792969 285.214844 L 191.792969 113.371094 C 199.054688 108.304688 236.835938 84.300781 303.710938 83.476562 Z M 319.578125 270.007812 C 268.351562 270.320312 231.714844 277.332031 210.046875 283.113281 C 228.847656 274.335938 261.105469 263.558594 306.410156 263.425781 L 310.769531 265.488281 L 310.769531 96.929688 C 313.660156 96.832031 316.585938 96.757812 319.578125 96.730469 Z M 319.578125 270.007812"/></g><path d="M 114.042969 138.410156 L 130.542969 138.410156 L 130.542969 220.140625 L 114.042969 220.140625 L 114.042969 138.410156"/><path d="M 81.363281 138.402344 L 94.21875 138.402344 L 94.21875 167.257812 L 81.363281 167.257812 L 81.363281 138.402344"/><path d="M 81.363281 151.277344 L 81.363281 138.421875 L 110.21875 138.421875 L 110.21875 151.277344 L 81.363281 151.277344"/><path d="M 163.929688 220.339844 L 151.074219 220.339844 L 151.074219 191.484375 L 163.929688 191.484375 L 163.929688 220.339844"/><path d="M 163.925781 207.464844 L 163.925781 220.320312 L 135.070312 220.320312 L 135.070312 207.464844 L 163.925781 207.464844"/><path d="M 94.238281 220.347656 L 81.382812 220.347656 L 81.382812 191.492188 L 94.238281 191.492188 L 94.238281 220.347656"/><path d="M 110.164062 207.472656 L 110.164062 220.328125 L 81.308594 220.328125 L 81.308594 207.472656 L 110.164062 207.472656"/><path d="M 151.054688 138.394531 L 163.910156 138.394531 L 163.910156 167.25 L 151.054688 167.25 L 151.054688 138.394531"/><path d="M 135.128906 151.265625 L 135.128906 138.410156 L 163.984375 138.410156 L 163.984375 151.265625 L 135.128906 151.265625"/><path d="M 97.75 154.765625 L 147.25 154.765625 L 147.25 204.265625 L 97.75 204.265625 L 97.75 154.765625"/><path d="M 81.378906 171.246094 L 163.847656 171.246094 L 163.847656 187.746094 L 81.378906 187.746094 L 81.378906 171.246094"/><g clip-path="url(#b)"><g clip-path="url(#c)"><g clip-path="url(#d)"><path fill="#08B0B0" d="M 126.648438 175.097656 C 137.824219 186.8125 156.277344 187.25 167.996094 176.074219 C 179.714844 164.898438 180.148438 146.441406 168.972656 134.726562 C 157.796875 123.007812 139.34375 122.570312 127.625 133.746094 C 115.90625 144.925781 115.46875 163.378906 126.648438 175.097656 Z M 128.570312 173.261719 C 118.375 162.574219 118.769531 145.863281 129.457031 135.671875 C 140.144531 125.476562 156.855469 125.871094 167.050781 136.558594 C 177.246094 147.246094 176.847656 163.957031 166.160156 174.152344 C 155.472656 184.34375 138.765625 183.949219 128.570312 173.261719 Z M 128.570312 173.261719"/></g></g></g><g clip-path="url(#e)"><g clip-path="url(#f)"><g clip-path="url(#g)"><path fill="#08B0B0" d="M 118.292969 184.585938 C 107.113281 172.867188 88.660156 172.433594 76.941406 183.609375 C 65.226562 194.785156 64.789062 213.238281 75.964844 224.957031 C 87.144531 236.675781 105.597656 237.109375 117.316406 225.933594 C 129.03125 214.757812 129.46875 196.304688 118.292969 184.585938 Z M 116.371094 186.417969 C 126.5625 197.105469 126.167969 213.816406 115.480469 224.011719 C 104.792969 234.207031 88.082031 233.8125 77.890625 223.125 C 67.695312 212.4375 68.089844 195.726562 78.777344 185.53125 C 89.464844 175.335938 106.175781 175.730469 116.371094 186.417969 Z M 116.371094 186.417969"/></g></g></g><g><g><g><path d="M 16.140625 -56.046875 C 12.515625 -56.046875 9.925781 -56.972656 8.375 -58.828125 C 6.832031 -60.679688 6.0625 -62.976562 6.0625 -65.71875 C 6.0625 -68.457031 6.898438 -70.71875 8.578125 -72.5 C 10.265625 -74.28125 12.820312 -75.171875 16.25 -75.171875 C 19.675781 -75.171875 22.28125 -74.363281 24.0625 -72.75 C 25.84375 -71.144531 26.734375 -68.847656 26.734375 -65.859375 C 26.734375 -62.878906 25.875 -60.5 24.15625 -58.71875 C 22.445312 -56.9375 19.773438 -56.046875 16.140625 -56.046875 Z M 0.609375 -48.953125 L 25.8125 -48.953125 L 25.8125 -1.84375 L 31.578125 -1.84375 L 31.578125 0 L 1.03125 0 L 1.03125 -1.84375 L 6.6875 -1.84375 L 6.6875 -47.109375 L 0.609375 -47.109375 Z M 0.609375 -48.953125" transform="translate(226.99 210.292)"/></g></g></g></svg>